<svg xmlns="http://www.w3.org/2000/svg" viewBox="0 0 1200 900" preserveAspectRatio="xMidYMid slice"><rect width="1200" height="900" fill="#d7e3ef"/><defs><filter id="g"><feTurbulence type="fractalNoise" baseFrequency=".85" numOctaves="2" seed="4"/><feColorMatrix values="0 0 0 0 0 0 0 0 0 0 0 0 0 0 0 0 0 0 0.2 0"/></filter><linearGradient id="v" x1="0" y1="0" x2="0" y2="1"><stop offset="0" stop-color="#fff" stop-opacity=".1"/><stop offset="1" stop-color="#000" stop-opacity=".18"/></linearGradient></defs><path d="M-100 900 L -100,305 L 50,313 L 200,288 L 350,325 L 500,336 L 650,294 L 800,286 L 950,283 L 1100,277 L 1250,326 L 1300 900 Z" fill="#8cbc4a"/><ellipse cx="1125" cy="363.0" rx="48" ry="36" fill="#6e9e33" opacity=".9"/><ellipse cx="120" cy="319.0" rx="63" ry="47" fill="#6e9e33" opacity=".9"/><ellipse cx="1099" cy="328.0" rx="47" ry="35" fill="#6e9e33" opacity=".9"/><ellipse cx="353" cy="357.0" rx="36" ry="27" fill="#6e9e33" opacity=".9"/><ellipse cx="536" cy="318.0" rx="90" ry="68" fill="#6e9e33" opacity=".9"/><path d="M-100 900 L -100,402 L 50,432 L 200,433 L 350,423 L 500,420 L 650,438 L 800,436 L 950,479 L 1100,446 L 1250,410 L 1300 900 Z" fill="#6e9e33"/><ellipse cx="691" cy="470.75" rx="54" ry="40" fill="#557f27" opacity=".9"/><ellipse cx="1036" cy="443.75" rx="41" ry="31" fill="#557f27" opacity=".9"/><ellipse cx="506" cy="458.75" rx="47" ry="35" fill="#557f27" opacity=".9"/><ellipse cx="182" cy="488.75" rx="89" ry="67" fill="#557f27" opacity=".9"/><ellipse cx="1121" cy="481.75" rx="49" ry="37" fill="#557f27" opacity=".9"/><path d="M-100 900 L -100,522 L 50,560 L 200,596 L 350,562 L 500,588 L 650,546 L 800,574 L 950,576 L 1100,598 L 1250,558 L 1300 900 Z" fill="#557f27"/><ellipse cx="882" cy="580.5" rx="40" ry="30" fill="#3f631d" opacity=".9"/><ellipse cx="477" cy="571.5" rx="46" ry="34" fill="#3f631d" opacity=".9"/><ellipse cx="88" cy="557.5" rx="32" ry="24" fill="#3f631d" opacity=".9"/><ellipse cx="947" cy="592.5" rx="47" ry="35" fill="#3f631d" opacity=".9"/><ellipse cx="1062" cy="586.5" rx="71" ry="53" fill="#3f631d" opacity=".9"/><path d="M-100 900 L -100,706 L 50,689 L 200,664 L 350,671 L 500,654 L 650,698 L 800,671 L 950,726 L 1100,702 L 1250,681 L 1300 900 Z" fill="#3f631d"/><ellipse cx="376" cy="698.25" rx="57" ry="43" fill="#3f631d" opacity=".9"/><ellipse cx="656" cy="716.25" rx="65" ry="49" fill="#3f631d" opacity=".9"/><ellipse cx="406" cy="733.25" rx="50" ry="38" fill="#3f631d" opacity=".9"/><ellipse cx="206" cy="729.25" rx="33" ry="25" fill="#3f631d" opacity=".9"/><ellipse cx="468" cy="693.25" rx="78" ry="58" fill="#3f631d" opacity=".9"/><rect width="1200" height="900" fill="url(#v)"/><rect width="1200" height="900" filter="url(#g)"/></svg>